<?xml version="1.0" encoding="UTF-8"?> <svg xmlns="http://www.w3.org/2000/svg" width="201" height="43" viewBox="0 0 201 43" fill="none"><path fill-rule="evenodd" clip-rule="evenodd" d="M56.8994 16.1995V26.4917H59.5821C62.5812 26.4917 64.7444 24.7582 64.7444 21.3456C64.7444 17.9358 62.5812 16.1995 59.5821 16.1995H56.8994ZM59.8989 30.1678H52.7168V12.5234H59.8989C65.6663 12.5234 69.0709 16.2884 69.0709 21.3456C69.0709 26.4039 65.6663 30.1678 59.8989 30.1678Z" fill="white"></path><path fill-rule="evenodd" clip-rule="evenodd" d="M80.8916 20.2577L85.515 30.1686H90.2096L81.1227 12.5254H80.4314L71.375 30.1686H76.0766L80.8916 20.2577Z" fill="white"></path><path fill-rule="evenodd" clip-rule="evenodd" d="M90.8389 12.5234H105.895V16.2006H100.473V30.1678H96.2906V16.2006H90.8389V12.5234Z" fill="white"></path><path fill-rule="evenodd" clip-rule="evenodd" d="M111.313 30.1681H115.496V12.5254H111.313V30.1681Z" fill="white"></path><path fill-rule="evenodd" clip-rule="evenodd" d="M129.452 21.9885L134.21 12.5254H138.97L129.885 30.1686H129.134L120.136 12.5254H124.807L129.452 21.9885Z" fill="white"></path><path fill-rule="evenodd" clip-rule="evenodd" d="M155.377 23.0233H147.763V26.4926H157.339V30.1686H143.58V12.5254H157.339V16.2003H147.763V19.6702H155.377V23.0233Z" fill="white"></path><path fill-rule="evenodd" clip-rule="evenodd" d="M171.382 16.1995H167.574V21.4934H171.411C173.343 21.4934 174.41 20.6114 174.41 18.8467C174.41 17.1415 173.314 16.1995 171.382 16.1995ZM163.393 12.5234H171.555C175.939 12.5234 178.737 14.8178 178.737 18.6694C178.737 21.1416 177.639 22.9046 175.853 23.9345V24.3158L178.742 30.1678H173.982L171.583 25.0217H167.574V30.1678H163.393V12.5234Z" fill="white"></path><path fill-rule="evenodd" clip-rule="evenodd" d="M195.543 12.5234H200.36L192.894 23.4337V30.1678H188.713V23.4032L181.334 12.5234H186.15L190.894 19.5417L195.543 12.5234Z" fill="white"></path><path fill-rule="evenodd" clip-rule="evenodd" d="M7.30176 35.9483L11.8757 38.6145L19.0565 42.8002L18.9657 37.1473L12.1322 33.1502L12.1577 17.445L7.32405 14.792L7.30176 35.9483Z" fill="#B18200"></path><path fill-rule="evenodd" clip-rule="evenodd" d="M0.359375 10.8008V32.0066L5.21397 34.9004V13.5004L0.359375 10.8008Z" fill="#B18200"></path><path fill-rule="evenodd" clip-rule="evenodd" d="M14.1764 23.7029L19.0562 26.4533L19.0241 21.3671L14.1523 18.6113L14.1764 23.7029Z" fill="#B18200"></path><path fill-rule="evenodd" clip-rule="evenodd" d="M19.0244 28.9672L14.1543 26.2212L14.158 31.9117L19.0565 34.6877L19.0244 28.9672Z" fill="#B18200"></path><path fill-rule="evenodd" clip-rule="evenodd" d="M30.7791 14.7043L17.0591 6.86348L12.1435 4.02148L0.359375 10.7986L5.21397 13.5206L12.2746 9.55273L25.8983 17.3532" fill="#F3C136"></path><path fill-rule="evenodd" clip-rule="evenodd" d="M7.28809 14.774L12.1652 17.4468L16.9872 14.6681L12.1786 11.915L7.28809 14.774Z" fill="#F3C136"></path><path fill-rule="evenodd" clip-rule="evenodd" d="M18.9903 0.0839844L14.2646 2.80215L32.7445 13.3835L37.6296 10.7166L36.8062 10.2666L18.9903 0.0839844Z" fill="#F3C136"></path><path fill-rule="evenodd" clip-rule="evenodd" d="M19.0465 15.8486L14.1416 18.6085L19.012 21.3796L23.9578 18.6606L19.0465 15.8486Z" fill="#F3C136"></path><path fill-rule="evenodd" clip-rule="evenodd" d="M30.7793 14.7041L25.8984 17.353V22.4631L30.7809 19.578V15.848L30.7793 14.7041Z" fill="#DBA40C"></path><path fill-rule="evenodd" clip-rule="evenodd" d="M23.9328 18.668L19.0107 21.3794L19.0337 26.4447L23.9413 23.5753L23.9493 19.8691L23.9328 18.668Z" fill="#DBA40C"></path><path fill-rule="evenodd" clip-rule="evenodd" d="M19.0383 42.7946L37.6293 31.7562V26.0864L18.9561 37.1328L19.0383 42.7946Z" fill="#DBA40C"></path><path fill-rule="evenodd" clip-rule="evenodd" d="M32.7449 13.3832V20.8689L19.0107 28.975L19.0385 34.6932L37.63 23.6444V10.7163L32.7449 13.3832Z" fill="#DBA40C"></path></svg> 