<svg xmlns="http://www.w3.org/2000/svg" xml:space="preserve" viewBox="0 0 167.624 62.362"><path d="M0 0h28.063v62.362H0z" style="fill:#d70c0f"/><path d="M28.063 0h3.118v62.362h-3.118z" style="fill:#00469b"/><path d="M13.86 20.57s-.423-.1-.523-.498c-.124-.473.224-.747.224-.747-.422-.25-.946-.649-1.418-1.021l-1.944.349c-1.718.298-2.216 1.593-.049 4.283H7.71c-.025-.574-.174-.922-.325-1.171-.423-.673-1.02-.597-1.568-.124.298.199.498.398.698.697.198.299.298.547.323.648-.424-.35-1.17-.548-1.47-.523-.372.024-.82.373-.82 1.145 0 0 .521-.15 1.144-.05.35.05.797.2.797.2-.274.074-.573.273-.772.473-.497.498-.274.97.324 1.494.1-.35.274-.648.672-1.046.35-.35.449-.423.598-.498q.579.172 1.124.285c.19.497-.228 1.134-.228 1.134.696.174 1.367-.396 1.395-.943 1.323.153 2.415.059 3.112-.152l-1.394-3.188s1.668-.15 2.54-.747M6.216 10.335l.765.746c-.115.508-.816.798-.816.798.486.534 1.327.43 1.668.031l2.143 2.085c.173-1.046.623-1.544 1.245-2.017-1.668-1.22-3.86-2.266-3.86-2.266.373-.423.523-.772.597-1.07.175-.773-.298-1.146-1.02-1.17.075.347.05.696 0 .945-.05.299-.1.473-.225.722-.05-.548-.447-1.22-.672-1.419-.273-.249-.847-.299-1.395.224 0 0 .498.3.848.772.198.274.422.722.422.722a1.8 1.8 0 0 0-.872-.224c-.721 0-.896.498-.845 1.295.323-.174.696-.274 1.22-.274.324 0 .573.025.797.1" style="fill:#fff"/><path d="M25.216 15.614h-.987q.015-.222.016-.448c0-1.519-.548-2.59-1.245-3.437 0 0-.523.4-.722.648.572.722.996 1.593.996 2.814q0 .212-.017.423h-1.08c0 .298.335.82.914 1.017a7.2 7.2 0 0 1-1.361 2.727c-.862-1.068-1.544-2.594-1.544-4.167 0-2.092 1.17-3.163 2.415-4.209.108-.09.275-.222.468-.389.319.289.652.641.927 1.086 0 0 .697-.348.697-.921 0-.534-.58-.646-1.123-.635.55-.566 1.098-1.337 1.098-2.229 0-.92-.573-1.494-1.37-1.494-1.17 0-1.294 1.22-1.294 1.494 0 0 .298-.274.672-.274.349 0 .697.249.697.797 0 .673-.548 1.146-1.544 1.992-1.145.972-2.614 2.29-2.614 4.757q0 .226.016.448h-1.112c0 .357.477 1.03 1.278 1.091.439 1.886 1.533 3.253 1.69 3.443-.161.19-.54.521-1.2.521-.65 0-1.25-.315-1.747-.971q.003-.11.004-.224c0-1.818-.648-3.91-1.694-5.155h1.818c-.025-1.046-.448-2.017-1.494-2.963h1.046c0-2.067-1.469-2.789-1.594-2.889.947-.224 1.345-.97 1.345-1.395h-4.557s-.548.623-1.519 1.021c0 .673.498 1.246.921 1.544.399-.647.897-.722 1.17-.722.424 0 .773.224.773.623 0 .3-.2.597-.548.597-.249 0-.523-.149-.897-.149-.92 0-.797.92-.797.92h1.569c.148 1.187-2.84 1.246-2.887 3.484-2.606.693-4.235 1.647-4.235 1.647-.075-.548-.25-.896-.448-1.145-.498-.623-1.071-.498-1.544.025.324.174.498.323.747.622.249.3.274.374.398.623-.448-.299-1.22-.423-1.52-.374-.372.05-.771.449-.721 1.196 0 0 .498-.15.996-.15s.947.15.947.15c-.274.074-.548.298-.723.523-.448.572-.199.996.449 1.47.074-.35.299-.798.572-1.122.15-.174.4-.423.573-.523l1.046-.142c.313.428.1 1.138.1 1.138.712-.049 1.181-.776 1.075-1.297l3.152-.428c1.086 1.368 2.846 2.303 3.169 2.472l-.947 3.263c-.398 1.37-.124 2.415.897 2.614.647.125 1.519-.099 1.519-.099l-1.146 2.291c-.498-.274-.87-.374-1.17-.374-.797 0-1.071.548-.946 1.245a2.2 2.2 0 0 1 .97-.199c.225 0 .449 0 .723.075-.523.174-1.096.697-1.245.946-.199.324-.125.897.498 1.32 0 0 .149-.498.573-.97.25-.275.622-.574.622-.574a1.6 1.6 0 0 0-.025.897c.175.672.523.796 1.42.572-.224-.3-.374-.548-.498-1.145-.075-.324-.1-.573-.075-.797.213-.243.522-.525.868-.841.509.14.776.841.776.841.529-.457.477-1.285.092-1.655.897-.89 1.75-1.954 1.75-3.126h-2.739s.88-.787 1.242-2.434c.489.459 1.226.715 1.846.715a2.5 2.5 0 0 0 1.594-.622v1.793c.797 0 1.469-1.096.896-2.042 1.295.722 2.142-.199 2.142-.747h-1.997c.323-.418 1.212-1.676 1.594-3.332.724-.118 1.15-.74 1.15-1.076m-11.43-7.271c-.3 0-.523-.225-.523-.698h1.27c0 .349-.4.698-.747.698" style="fill:#fff"/><path d="M11.071 10.285h.847c0-.523-.523-.573-.996-.747-.399-.15-.747-.423-.747-1.12 0-.3.074-.773.498-1.12-.748 0-1.544.497-1.544 1.418 0 .747.523 1.569 1.942 1.569m3.711-4.035h2.017l1.444-2.664c-.498-.373-1.593-.249-1.593.598 0 .3.124.498.124.747 0 .399-.324.523-.697.523-.747 0-1.021-.548-1.021-.996l.224.15c.374.248.822-.05.822-.45a.537.537 0 0 0-.623-.522l-.323.05.149-.324c.224-.473-.125-.747-.523-.971-.398.224-.747.498-.523.971l.149.324-.323-.05a.537.537 0 0 0-.623.523c0 .399.448.697.822.448l.224-.15c0 .449-.274.997-1.021.997-.373 0-.697-.124-.697-.523 0-.25.124-.448.124-.747 0-.847-1.095-.97-1.593-.598l1.444 2.665zm3.984 4.508c0 .573.697.921.697.921.274-.448 1.146-1.344 1.644-1.718-.673-.573-1.02-.996-1.02-1.544s.347-.797.696-.797c.374 0 .672.274.672.274 0-.274-.124-1.494-1.294-1.494-.797 0-1.37.573-1.37 1.494 0 .897.548 1.67 1.096 2.241-.548-.024-1.12.1-1.12.623" style="fill:#fff"/><path d="M46.543 14.487v-9.1h-1.287l-2.665 4.991-2.679-4.992h-1.325v9.1h1.351V7.975l2.627 4.9 2.626-4.9v6.513zm1.663-9.153h1.508v1.508h-1.508zm.104 2.471h1.3v6.682h-1.3zm6.201-.131c-.806 0-1.456.351-1.885 1.002v-.871h-1.248v6.682h1.3v-4.212c0-1.002.65-1.495 1.47-1.495.87 0 1.468.48 1.468 1.729v3.978h1.3v-4.109c0-1.872-1-2.704-2.405-2.704m4.173.131h1.3v6.682h-1.3zm-.104-2.471h1.508v1.508H58.58zm5.59 8.243c-1.105 0-1.456-.43-1.508-1.144h-1.3c.065 1.378 1.04 2.184 2.808 2.184s2.808-.872 2.808-2.041c0-1.092-.78-1.69-2.04-1.898l-.976-.17c-.767-.13-1.053-.325-1.053-.857 0-.56.455-.937 1.274-.937.975 0 1.326.43 1.378 1.145h1.3c-.065-1.353-1-2.185-2.69-2.185-1.639 0-2.562.924-2.562 2.042 0 1.092.754 1.65 2.028 1.859l.988.169c.715.117 1.053.35 1.053.884 0 .624-.56.949-1.508.949m6.266-7.931-1.3.26v1.899h-1.378V8.91h1.378v3.497c0 1.313.494 2.17 2.08 2.17a6 6 0 0 0 .988-.09v-1.105a5 5 0 0 1-.806.078c-.715 0-.962-.3-.962-1.053V8.91h1.768V7.805h-1.768zM76 14.617c1.495 0 2.548-.806 2.704-2.184h-1.352c-.065.688-.585 1.13-1.352 1.13-.988 0-1.508-.61-1.547-2.067h4.316c.013-.09.013-.168.013-.247 0-2.47-1.027-3.575-2.782-3.575-1.86 0-2.886 1.106-2.886 3.471 0 2.367 1.027 3.472 2.886 3.472m0-5.89c.82 0 1.326.534 1.43 1.768h-2.964c.104-1.234.61-1.768 1.534-1.768m7.865-.922a3 3 0 0 0-.598-.065c-.767 0-1.404.324-1.833.987v-.922h-1.248v6.682h1.3v-4.004c0-.859.455-1.573 1.677-1.573h.702zm4.095 2.873-.975-.17c-.767-.13-1.053-.325-1.053-.857 0-.56.455-.937 1.274-.937.975 0 1.326.43 1.378 1.145h1.3c-.065-1.353-1.001-2.185-2.69-2.185-1.64 0-2.562.924-2.562 2.042 0 1.092.754 1.65 2.028 1.859l.988.169c.715.117 1.053.35 1.053.884 0 .624-.56.949-1.508.949-1.105 0-1.456-.43-1.508-1.144h-1.3c.065 1.378 1.04 2.184 2.808 2.184s2.808-.872 2.808-2.041c0-1.092-.78-1.69-2.04-1.898m4.197 1.729c0 1.313.495 2.17 2.08 2.17a6 6 0 0 0 .988-.09v-1.105a5 5 0 0 1-.805.078c-.716 0-.962-.3-.962-1.053V8.91h1.767V7.805H93.46V5.646l-1.3.26v1.899h-1.38V8.91h1.377zm7.931 2.08 2.353-6.682h-1.34l-1.794 5.42-1.794-5.42H96.11l2.353 6.682zm8.658-3.342c0-2.365-1.028-3.47-2.9-3.47s-2.899 1.105-2.899 3.47c0 2.367 1.027 3.472 2.9 3.472s2.899-1.105 2.899-3.472m-4.446 0c0-1.664.494-2.392 1.546-2.392 1.054 0 1.548.728 1.548 2.392s-.494 2.392-1.548 2.392c-1.052 0-1.546-.728-1.546-2.392M41.823 22.174c-.832 0-1.546.39-1.988 1.183v-1.052h-1.248v9.412l1.3-.26v-3.29c.455.65 1.091.95 1.807.95 1.546 0 2.639-1.08 2.639-3.472s-.936-3.47-2.51-3.47m-.39 5.85c-1.052 0-1.547-.727-1.547-2.379 0-1.65.495-2.379 1.547-2.379 1.054 0 1.535.729 1.535 2.38s-.481 2.379-1.535 2.379m5.551-4.799v-.922h-1.248v6.682h1.3v-4.004c0-.859.455-1.573 1.678-1.573h.701v-1.105a3 3 0 0 0-.597-.065c-.767 0-1.405.324-1.834.987m5.889-1.053c-1.469 0-2.6.937-2.665 2.393h1.326c.052-.898.585-1.34 1.326-1.34.806 0 1.379.442 1.379 1.496v.298l-1.834.118c-1.482.104-2.405.87-2.405 2.054 0 1.118.82 1.924 2.067 1.924.806 0 1.664-.325 2.223-1.131v1h1.248v-4.211c0-1.664-1.04-2.6-2.665-2.6m1.366 4.044c0 1.378-1.04 1.846-1.899 1.846-.598 0-1.04-.351-1.04-.91 0-.585.403-.989 1.248-1.04l1.69-.13zm.441-6.852h-1.456l-1.118 2.21h1.144zm5.161 3.886c.767 0 1.3.455 1.418 1.444h1.351c-.195-1.73-1.196-2.523-2.769-2.523-1.872 0-2.899 1.106-2.899 3.471 0 2.367 1.027 3.472 2.9 3.472 1.52 0 2.573-.793 2.768-2.522h-1.35c-.118.987-.65 1.442-1.418 1.442-1.053 0-1.547-.728-1.547-2.392s.494-2.392 1.547-2.392m6.824-1.079c-1.86 0-2.886 1.106-2.886 3.471 0 2.367 1.027 3.472 2.886 3.472 1.495 0 2.548-.806 2.704-2.184h-1.352c-.065.688-.585 1.13-1.352 1.13-.988 0-1.508-.61-1.547-2.067h4.316c.013-.09.013-.168.013-.247 0-2.47-1.027-3.575-2.782-3.575m-1.534 2.821c.104-1.234.61-1.768 1.534-1.768.82 0 1.326.534 1.43 1.768zm11.246-2.821c-1.47 0-2.6.937-2.665 2.393h1.326c.052-.898.585-1.34 1.325-1.34.807 0 1.379.442 1.379 1.496v.298l-1.833.118c-1.483.104-2.405.87-2.405 2.054 0 1.118.818 1.924 2.067 1.924.806 0 1.664-.325 2.223-1.131v1h1.248v-4.211c0-1.664-1.04-2.6-2.665-2.6m1.365 4.044c0 1.378-1.04 1.846-1.899 1.846-.597 0-1.04-.351-1.04-.91 0-.585.404-.989 1.248-1.04l1.69-.13zm9.49-1.041-.975-.17c-.768-.13-1.054-.325-1.054-.857 0-.56.455-.937 1.274-.937.975 0 1.326.43 1.379 1.145h1.3c-.065-1.353-1.001-2.185-2.691-2.185-1.639 0-2.561.924-2.561 2.042 0 1.092.753 1.65 2.027 1.859l.989.169c.714.117 1.052.35 1.052.884 0 .624-.559.949-1.507.949-1.105 0-1.456-.43-1.509-1.144h-1.3c.065 1.378 1.04 2.184 2.809 2.184s2.808-.872 2.808-2.041c0-1.092-.78-1.69-2.041-1.898m6.083-3.004c-1.872 0-2.899 1.106-2.899 3.471 0 2.367 1.027 3.472 2.9 3.472s2.899-1.105 2.899-3.472c0-2.365-1.028-3.47-2.9-3.47m0 5.863c-1.053 0-1.547-.728-1.547-2.392s.494-2.392 1.547-2.392 1.548.728 1.548 2.392-.495 2.392-1.548 2.392m6.968-4.785c.767 0 1.3.455 1.417 1.444h1.352c-.195-1.73-1.196-2.523-2.77-2.523-1.871 0-2.898 1.106-2.898 3.471 0 2.367 1.027 3.472 2.899 3.472 1.521 0 2.574-.793 2.77-2.522H101.7c-.117.987-.65 1.442-1.417 1.442-1.053 0-1.547-.728-1.547-2.392s.494-2.392 1.547-2.392m4.07-3.419h1.508v1.508h-1.508zm.104 2.471h1.3v6.682h-1.3zm7.423-2.938h-1.456l-1.118 2.21h1.144zm-1.807 2.807c-1.47 0-2.6.937-2.665 2.393h1.326c.052-.898.585-1.34 1.326-1.34.806 0 1.378.442 1.378 1.496v.298l-1.833.118c-1.482.104-2.405.87-2.405 2.054 0 1.118.819 1.924 2.067 1.924.806 0 1.664-.325 2.223-1.131v1h1.248v-4.211c0-1.664-1.04-2.6-2.665-2.6m1.365 4.044c0 1.378-1.04 1.846-1.898 1.846-.598 0-1.04-.351-1.04-.91 0-.585.403-.989 1.248-1.04l1.69-.13zm3.068 2.768h1.3v-9.75l-1.3.26zm6.201-6.813c-.806 0-1.456.351-1.885 1.002v-.871h-1.248v6.682h1.3v-4.212c0-1.002.65-1.495 1.469-1.495.87 0 1.469.48 1.469 1.729v3.978h1.3v-4.109c0-1.872-1-2.704-2.405-2.704m4.173.131h1.3v6.682h-1.3zm-.117-.728h1.144l1.43-2.21h-1.456zm5.72 1.676c.767 0 1.3.455 1.417 1.444h1.352c-.195-1.73-1.196-2.523-2.77-2.523-1.871 0-2.898 1.106-2.898 3.471 0 2.367 1.027 3.472 2.899 3.472 1.52 0 2.574-.793 2.769-2.522H131.9c-.117.987-.65 1.442-1.417 1.442-1.053 0-1.547-.728-1.547-2.392s.494-2.392 1.547-2.392m7.306-1.079c-.78 0-1.404.325-1.833.95v-3.888l-1.3.26v9.49h1.3v-4.211c0-1.002.65-1.495 1.469-1.495.87 0 1.469.48 1.469 1.729v3.978h1.3v-4.109c0-1.872-1-2.704-2.405-2.704m9.828 5.551-1.794-5.42h-1.404l2.353 6.682h1.625l2.353-6.682h-1.339zm6.526-5.551c-1.86 0-2.886 1.106-2.886 3.471 0 2.367 1.026 3.472 2.886 3.472 1.495 0 2.548-.806 2.704-2.184h-1.352c-.065.688-.585 1.13-1.352 1.13-.988 0-1.508-.61-1.547-2.067h4.316c.013-.09.013-.168.013-.247 0-2.47-1.027-3.575-2.782-3.575m-1.534 2.821c.104-1.234.611-1.768 1.534-1.768.82 0 1.326.534 1.43 1.768zm2.327-3.418 1.404-2.21h-1.118l-1.066 1.417-1.066-1.417h-1.144l1.404 2.21zm6.057 1.676c.768 0 1.301.455 1.417 1.444h1.353c-.195-1.73-1.196-2.523-2.77-2.523-1.872 0-2.898 1.106-2.898 3.471 0 2.367 1.026 3.472 2.898 3.472 1.522 0 2.575-.793 2.77-2.522h-1.353c-.116.987-.649 1.442-1.417 1.442-1.052 0-1.546-.728-1.546-2.392s.494-2.392 1.546-2.392m4.173-.948h1.301v6.682h-1.301zm2.458-2.938h-1.456l-1.118 2.21h1.144z" style="fill:#545860"/></svg>