<svg width="220" height="80" viewBox="195 205 450 210"  xmlns="http://www.w3.org/2000/svg"><g>    <g>        <path fill="#BDBDBD" d="M604.322,215.405c0.174-0.153,0.371-0.229,0.59-0.229h5.83c0.219,0,0.395,0.076,0.525,0.229			s0.174,0.339,0.131,0.557l-3.932,31.908c-0.045,0.219-0.143,0.404-0.295,0.557c-0.154,0.153-0.338,0.229-0.557,0.229h-5.832			c-0.219,0-0.393-0.076-0.523-0.229c-0.131-0.152-0.176-0.338-0.131-0.557l0.131-1.441c0.043-0.131,0.021-0.218-0.066-0.263			c-0.088-0.043-0.174,0-0.262,0.132c-1.484,1.878-3.582,2.817-6.289,2.817c-2.271,0-4.096-0.633-5.471-1.9			c-1.377-1.267-2.064-3.232-2.064-5.896c0-0.35,0.043-1.005,0.131-1.966l2.883-23.391c0-0.218,0.088-0.403,0.262-0.557			s0.371-0.229,0.59-0.229h5.832c0.217,0,0.393,0.076,0.523,0.229s0.174,0.339,0.131,0.557l-2.686,21.753			c-0.045,0.306-0.066,0.699-0.066,1.179c0,2.49,1.049,3.734,3.146,3.734c1.221,0,2.236-0.469,3.045-1.408			c0.809-0.938,1.301-2.217,1.475-3.833l2.688-21.425C604.061,215.744,604.146,215.559,604.322,215.405z"/>        <path fill="#BDBDBD" d="M636.852,216.912c1.332,1.507,1.998,3.57,1.998,6.191c0,0.481-0.045,1.202-0.131,2.162l-1.572,13.235			c-0.438,3.363-1.563,5.984-3.375,7.862s-4.117,2.817-6.912,2.817c-0.961,0-1.934-0.187-2.916-0.558			c-0.982-0.37-1.824-0.971-2.521-1.802c-0.088-0.087-0.176-0.108-0.262-0.065c-0.09,0.044-0.133,0.132-0.133,0.263l-1.637,13.234			c-0.045,0.219-0.143,0.403-0.295,0.558c-0.154,0.152-0.34,0.229-0.557,0.229h-5.832c-0.48,0-0.721-0.262-0.721-0.786l5.438-44.291			c0.043-0.218,0.143-0.403,0.295-0.557s0.338-0.229,0.559-0.229h5.896c0.217,0,0.393,0.076,0.523,0.229s0.174,0.339,0.131,0.557			l-0.131,0.786c0,0.131,0.055,0.208,0.164,0.229c0.107,0.022,0.25-0.055,0.426-0.229c1.615-1.397,3.537-2.097,5.766-2.097			C633.586,214.651,635.518,215.405,636.852,216.912z M631.445,225.069c0-1.18-0.316-2.13-0.949-2.851			c-0.635-0.721-1.475-1.081-2.523-1.081c-1.135,0-2.096,0.438-2.883,1.311c-0.785,0.874-1.289,2.01-1.506,3.407l-1.441,12.121			c-0.045,0.219-0.066,0.524-0.066,0.917c0,1.137,0.295,2.043,0.885,2.72c0.59,0.678,1.387,1.015,2.393,1.015			c1.178,0,2.184-0.426,3.014-1.277c0.828-0.852,1.332-1.976,1.506-3.374l1.508-12.121L631.445,225.069z"/>    </g>    <path fill="#00ABC7" d="M567.1,396.01h-7.369c-2.501,0-3.652-1.839-3.685-3.661v-175.41c0-2.501,1.843-3.653,3.67-3.685h7.384		c2.51,0,3.659,1.841,3.685,3.666v175.405c0,2.505-1.84,3.655-3.664,3.685C567.113,396.01,567.106,396.01,567.1,396.01L567.1,396.01		z"/>    <path fill="#00ABC7" d="M633.461,277.188h-45.327c-1.824,0.029-3.664,1.18-3.664,3.685v7.387c0.031,1.826,1.183,3.67,3.685,3.67		h15.282v100.42c0.032,1.822,1.184,3.661,3.685,3.661h7.371c0.007,0,0.014,0,0.021,0c1.824-0.029,3.664-1.18,3.664-3.685V291.93		h15.284c0.008,0,0.016,0,0.023,0c1.822-0.032,3.661-1.185,3.661-3.686v-7.394C637.113,279.027,635.961,277.188,633.461,277.188z"/>    <g>        <path fill="#C6C6C5" d="M256.427,290.982c4.444,4.623,6.927,11.14,7.441,19.548l2.077,33.97c0.528,8.634-1.136,15.487-4.987,20.56			c-3.854,5.076-9.538,7.842-17.048,8.301c-2.58,0.158-5.242-0.158-7.991-0.945s-5.255-2.182-7.514-4.183			c-0.24-0.21-0.467-0.251-0.683-0.127c-0.22,0.127-0.316,0.356-0.296,0.693l2.078,33.97c0.034,0.56-0.134,1.047-0.501,1.465			c-0.371,0.416-0.834,0.643-1.394,0.676l-15.472,0.947c-0.562,0.033-1.05-0.135-1.465-0.502c-0.419-0.369-0.643-0.834-0.677-1.393			l-6.952-113.681c-0.035-0.561,0.131-1.047,0.501-1.466c0.367-0.415,0.831-0.642,1.394-0.675l15.471-0.947			c0.561-0.033,1.047,0.135,1.466,0.501c0.415,0.37,0.642,0.834,0.676,1.394l0.123,2.018c0.021,0.337,0.173,0.525,0.457,0.563			c0.282,0.041,0.58-0.174,0.889-0.645c3.703-3.827,8.525-5.923,14.47-6.286C246,284.277,251.979,286.359,256.427,290.982z			 M241.228,304.656c-2.045-2.124-4.636-3.093-7.772-2.9c-3.027,0.185-5.397,1.456-7.11,3.811c-1.712,2.357-2.459,5.328-2.24,8.915			l1.903,31.11c0.22,3.589,1.321,6.418,3.305,8.491c1.983,2.072,4.488,3.016,7.516,2.831c3.138-0.192,5.593-1.44,7.367-3.741			c1.771-2.303,2.549-5.247,2.329-8.836l-1.903-31.11C244.402,309.64,243.27,306.784,241.228,304.656z"/>        <path fill="#C6C6C5" d="M315.88,281.945c0.367-0.415,0.831-0.641,1.394-0.675l15.471-0.946c0.56-0.035,1.047,0.134,1.466,0.5			c0.415,0.37,0.642,0.834,0.676,1.394l5.009,81.897c0.035,0.563-0.134,1.051-0.501,1.465c-0.37,0.419-0.834,0.643-1.394,0.677			l-15.471,0.946c-0.563,0.034-1.051-0.131-1.466-0.502c-0.418-0.366-0.642-0.831-0.676-1.393l-0.227-3.7			c-0.021-0.337-0.147-0.552-0.377-0.652c-0.233-0.097-0.45,0.028-0.652,0.378c-2.958,5.021-8.024,7.748-15.197,8.188			c-6.84,0.418-12.485-1.289-16.94-5.125c-4.454-3.834-6.941-10.012-7.463-18.533l-3.672-60.034			c-0.034-0.561,0.132-1.048,0.501-1.467c0.368-0.414,0.832-0.641,1.395-0.675l15.471-0.946c0.56-0.034,1.048,0.134,1.465,0.5			c0.416,0.371,0.642,0.834,0.677,1.395l3.414,55.831c0.515,8.408,4.022,12.413,10.525,12.016c3.25-0.199,5.699-1.557,7.347-4.078			c1.645-2.52,2.342-5.854,2.089-10.003l-3.363-54.99C315.344,282.851,315.51,282.363,315.88,281.945z"/>        <path fill="#C6C6C5" d="M441.847,279.979c4.067,4.872,6.38,11.848,6.935,20.928l3.446,56.337c0.034,0.562-0.134,1.05-0.501,1.465			c-0.371,0.419-0.834,0.642-1.394,0.677l-15.304,0.936c-0.562,0.034-1.049-0.131-1.466-0.502c-0.417-0.366-0.641-0.831-0.675-1.393			l-3.363-54.99c-0.261-4.26-1.304-7.517-3.13-9.768c-1.825-2.253-4.196-3.288-7.11-3.109c-3.14,0.192-5.536,1.519-7.184,3.983			c-1.65,2.464-2.349,5.771-2.095,9.918l3.374,55.159c0.034,0.562-0.134,1.051-0.501,1.465c-0.37,0.418-0.834,0.643-1.394,0.676			l-15.303,0.936c-0.563,0.035-1.05-0.131-1.466-0.5c-0.418-0.367-0.642-0.832-0.676-1.394l-3.363-54.99			c-0.261-4.26-1.333-7.516-3.214-9.762c-1.883-2.25-4.225-3.287-7.026-3.115c-3.14,0.191-5.535,1.519-7.184,3.984			c-1.65,2.463-2.348,5.771-2.094,9.917l3.374,55.159c0.034,0.562-0.134,1.05-0.502,1.464c-0.369,0.42-0.833,0.643-1.393,0.678			l-15.304,0.936c-0.563,0.034-1.05-0.131-1.465-0.502c-0.419-0.366-0.642-0.831-0.677-1.393l-5.009-81.897			c-0.034-0.56,0.131-1.047,0.501-1.465c0.367-0.415,0.831-0.641,1.394-0.676l15.304-0.936c0.56-0.034,1.047,0.134,1.465,0.5			c0.416,0.371,0.643,0.834,0.677,1.394l0.164,2.69c0.021,0.336,0.145,0.556,0.378,0.652c0.229,0.1,0.446-0.027,0.651-0.378			c2.104-2.377,4.527-4.158,7.27-5.339c2.738-1.18,5.457-1.853,8.147-2.018c8.295-0.507,14.621,2.65,18.978,9.473			c0.364,0.43,0.858,0.23,1.483-0.597c2.021-3.724,4.693-6.475,8.019-8.255c3.323-1.778,6.722-2.774,10.198-2.987			C432.101,272.896,437.778,275.109,441.847,279.979z"/>        <path fill="#C6C6C5" d="M516.07,275.103c4.444,4.622,6.927,11.139,7.441,19.547l2.077,33.97			c0.528,8.634-1.136,15.487-4.987,20.561c-3.854,5.075-9.538,7.841-17.048,8.3c-2.58,0.158-5.241-0.158-7.991-0.945			c-2.748-0.787-5.255-2.181-7.514-4.183c-0.239-0.21-0.466-0.251-0.683-0.127c-0.22,0.128-0.315,0.356-0.295,0.694l2.077,33.969			c0.034,0.561-0.134,1.047-0.501,1.465c-0.37,0.416-0.834,0.643-1.394,0.676l-15.471,0.947c-0.563,0.034-1.051-0.135-1.466-0.502			c-0.418-0.369-0.643-0.833-0.677-1.393L462.688,274.4c-0.034-0.56,0.131-1.047,0.501-1.466c0.367-0.415,0.831-0.641,1.394-0.675			l15.472-0.946c0.56-0.034,1.047,0.134,1.465,0.5c0.416,0.371,0.643,0.834,0.677,1.394l0.123,2.018			c0.021,0.337,0.172,0.524,0.456,0.563c0.282,0.041,0.58-0.175,0.889-0.646c3.704-3.827,8.526-5.922,14.47-6.286			C505.644,268.397,511.623,270.479,516.07,275.103z M500.871,288.775c-2.044-2.124-4.636-3.092-7.772-2.9			c-3.027,0.186-5.397,1.457-7.11,3.811c-1.712,2.357-2.459,5.328-2.239,8.915l1.902,31.111c0.22,3.588,1.321,6.418,3.305,8.49			s4.489,3.017,7.516,2.832c3.138-0.192,5.594-1.44,7.367-3.742c1.771-2.303,2.549-5.246,2.329-8.836l-1.903-31.11			C504.046,293.76,502.913,290.903,500.871,288.775z"/>    </g></g></svg>
